<mxfile host="drawio-plugin" modified="2024-08-06T08:08:44.634Z" agent="5.0 (Windows NT 6.2; Win64; x64) AppleWebKit/537.36 (KHTML, like Gecko) Chrome/104.0.5112.102 Safari/537.36" etag="euz9BuXD96Qszb5nGdZf" version="20.5.3" type="embed"><diagram id="23iRSUPoRavnBvh4doch" name="Page-1"><mxGraphModel dx="1136" dy="1110" grid="1" gridSize="10" guides="1" tooltips="1" connect="1" arrows="1" fold="1" page="1" pageScale="1" pageWidth="827" pageHeight="1169" math="0" shadow="0"><root><mxCell id="0"/><mxCell id="1" parent="0"/><mxCell id="3" value="" style="shape=umlLifeline;participant=umlActor;perimeter=lifelinePerimeter;whiteSpace=wrap;html=1;container=1;collapsible=0;recursiveResize=0;verticalAlign=top;spacingTop=36;outlineConnect=0;" parent="1" vertex="1"><mxGeometry x="70" y="30" width="20" height="300" as="geometry"/></mxCell><mxCell id="4" value="BusFactory" style="shape=umlLifeline;perimeter=lifelinePerimeter;whiteSpace=wrap;html=1;container=1;collapsible=0;recursiveResize=0;outlineConnect=0;" parent="1" vertex="1"><mxGeometry x="130" y="30" width="100" height="300" as="geometry"/></mxCell><mxCell id="5" value="produceBus" style="html=1;verticalAlign=bottom;endArrow=block;rounded=0;" parent="1" source="3" target="4" edge="1"><mxGeometry width="80" relative="1" as="geometry"><mxPoint x="90" y="100" as="sourcePoint"/><mxPoint x="170" y="100" as="targetPoint"/><Array as="points"><mxPoint x="130" y="100"/></Array></mxGeometry></mxCell><mxCell id="6" value="Bus" style="html=1;verticalAlign=bottom;endArrow=open;dashed=1;endSize=8;rounded=0;" parent="1" source="4" target="3" edge="1"><mxGeometry relative="1" as="geometry"><mxPoint x="170" y="130" as="sourcePoint"/><mxPoint x="90" y="130" as="targetPoint"/><Array as="points"><mxPoint x="140" y="120"/></Array></mxGeometry></mxCell><mxCell id="7" value="produceBus" style="html=1;verticalAlign=bottom;endArrow=block;rounded=0;" parent="1" source="3" target="4" edge="1"><mxGeometry width="80" relative="1" as="geometry"><mxPoint x="90" y="160" as="sourcePoint"/><mxPoint x="170" y="160" as="targetPoint"/><Array as="points"><mxPoint x="120" y="140"/></Array></mxGeometry></mxCell><mxCell id="9" value="2ndBus" style="html=1;verticalAlign=bottom;endArrow=open;dashed=1;endSize=8;rounded=0;" parent="1" source="4" target="3" edge="1"><mxGeometry relative="1" as="geometry"><mxPoint x="170" y="190" as="sourcePoint"/><mxPoint x="90" y="190" as="targetPoint"/><Array as="points"><mxPoint x="110" y="160"/></Array><mxPoint as="offset"/></mxGeometry></mxCell><mxCell id="10" value="EventManager" style="shape=umlLifeline;perimeter=lifelinePerimeter;whiteSpace=wrap;html=1;container=1;collapsible=0;recursiveResize=0;outlineConnect=0;" parent="1" vertex="1"><mxGeometry x="270" y="30" width="100" height="300" as="geometry"/></mxCell><mxCell id="11" value="produceEvent" style="html=1;verticalAlign=bottom;endArrow=block;rounded=0;" parent="1" source="3" target="10" edge="1"><mxGeometry width="80" relative="1" as="geometry"><mxPoint x="90" y="180" as="sourcePoint"/><mxPoint x="170" y="180" as="targetPoint"/></mxGeometry></mxCell><mxCell id="12" value="Event" style="html=1;verticalAlign=bottom;endArrow=open;dashed=1;endSize=8;rounded=0;" parent="1" source="10" target="3" edge="1"><mxGeometry relative="1" as="geometry"><mxPoint x="300" y="230" as="sourcePoint"/><mxPoint x="220" y="230" as="targetPoint"/><Array as="points"><mxPoint x="230" y="200"/></Array></mxGeometry></mxCell><mxCell id="13" value="Event" style="shape=umlLifeline;perimeter=lifelinePerimeter;whiteSpace=wrap;html=1;container=1;collapsible=0;recursiveResize=0;outlineConnect=0;" parent="1" vertex="1"><mxGeometry x="414" y="30" width="100" height="300" as="geometry"/></mxCell><mxCell id="14" value="subscribeEvent(2ndBus.writeSingleMessage)" style="html=1;verticalAlign=bottom;endArrow=block;rounded=0;" parent="1" source="3" target="13" edge="1"><mxGeometry width="80" relative="1" as="geometry"><mxPoint x="90" y="230" as="sourcePoint"/><mxPoint x="170" y="230" as="targetPoint"/><Array as="points"><mxPoint x="350" y="220"/></Array></mxGeometry></mxCell><mxCell id="19" value="Bus" style="shape=umlLifeline;perimeter=lifelinePerimeter;whiteSpace=wrap;html=1;container=1;collapsible=0;recursiveResize=0;outlineConnect=0;" parent="1" vertex="1"><mxGeometry x="560" y="30" width="100" height="300" as="geometry"/></mxCell><mxCell id="23" value="loop" style="edgeStyle=orthogonalEdgeStyle;html=1;align=left;spacingLeft=2;endArrow=block;rounded=0;" parent="19" source="26" edge="1"><mxGeometry relative="1" as="geometry"><mxPoint x="60.569999999999936" y="238.43999999999994" as="sourcePoint"/><Array as="points"><mxPoint x="80" y="240"/><mxPoint x="80" y="190"/><mxPoint x="60" y="190"/></Array><mxPoint x="60" y="190" as="targetPoint"/></mxGeometry></mxCell><mxCell id="26" value="" style="html=1;points=[];perimeter=orthogonalPerimeter;" parent="19" vertex="1"><mxGeometry x="45" y="190" width="10" height="50" as="geometry"/></mxCell><mxCell id="20" value="&lt;span style=&quot;font-family: &amp;quot;JetBrains Mono&amp;quot;, monospace;&quot;&gt;readBusUntilStopFlag(Event.&lt;/span&gt;&lt;span style=&quot;font-family: &amp;quot;JetBrains Mono&amp;quot;, monospace;&quot;&gt;notifySubscribers)&lt;/span&gt;" style="html=1;verticalAlign=bottom;endArrow=block;rounded=0;labelBackgroundColor=none;" parent="1" source="3" target="19" edge="1"><mxGeometry width="80" relative="1" as="geometry"><mxPoint x="90" y="240" as="sourcePoint"/><mxPoint x="170" y="240" as="targetPoint"/><Array as="points"><mxPoint x="350" y="240"/></Array></mxGeometry></mxCell><mxCell id="21" value="message" style="html=1;verticalAlign=bottom;endArrow=open;dashed=1;endSize=8;rounded=0;" parent="1" source="19" target="13" edge="1"><mxGeometry relative="1" as="geometry"><mxPoint x="280" y="360" as="sourcePoint"/><mxPoint x="200" y="360" as="targetPoint"/><Array as="points"><mxPoint x="550" y="260"/></Array></mxGeometry></mxCell><mxCell id="25" value="2ndBus" style="shape=umlLifeline;perimeter=lifelinePerimeter;whiteSpace=wrap;html=1;container=1;collapsible=0;recursiveResize=0;outlineConnect=0;" parent="1" vertex="1"><mxGeometry x="710" y="30" width="100" height="300" as="geometry"/></mxCell><mxCell id="27" value="callbackMethod(data)" style="html=1;verticalAlign=bottom;endArrow=block;rounded=0;" parent="1" source="13" target="25" edge="1"><mxGeometry width="80" relative="1" as="geometry"><mxPoint x="490" y="300" as="sourcePoint"/><mxPoint x="570" y="300" as="targetPoint"/><Array as="points"><mxPoint x="680" y="290"/></Array></mxGeometry></mxCell></root></mxGraphModel></diagram></mxfile>